<?xml version="1.0" encoding="UTF-8" standalone="no"?>
<!-- Created with Inkscape (http://www.inkscape.org/) -->

<svg
   xmlns:dc="http://purl.org/dc/elements/1.1/"
   xmlns:cc="http://creativecommons.org/ns#"
   xmlns:rdf="http://www.w3.org/1999/02/22-rdf-syntax-ns#"
   xmlns:svg="http://www.w3.org/2000/svg"
   xmlns="http://www.w3.org/2000/svg"
   xmlns:sodipodi="http://sodipodi.sourceforge.net/DTD/sodipodi-0.dtd"
   xmlns:inkscape="http://www.inkscape.org/namespaces/inkscape"
   width="1085"
   height="553"
   viewBox="0 0 1085 553"
   id="svg4870"
   version="1.1"
   inkscape:version="0.91 r13725"
   sodipodi:docname="logo.svg">
  <defs
     id="defs4872">
    <clipPath
       clipPathUnits="userSpaceOnUse"
       id="clipPath4791">
      <path
         d="M 0,498 935,498 935,0 0,0 0,498 Z"
         id="path4793"
         inkscape:connector-curvature="0" />
    </clipPath>
  </defs>
  <sodipodi:namedview
     id="base"
     pagecolor="#ffffff"
     bordercolor="#666666"
     borderopacity="1.0"
     inkscape:pageopacity="0"
     inkscape:pageshadow="2"
     inkscape:zoom="0.49497475"
     inkscape:cx="794.89474"
     inkscape:cy="419.12993"
     inkscape:document-units="px"
     inkscape:current-layer="layer1"
     showgrid="false"
     units="px"
     inkscape:window-width="1920"
     inkscape:window-height="1051"
     inkscape:window-x="1920"
     inkscape:window-y="0"
     inkscape:window-maximized="1" />
  <metadata
     id="metadata4875">
    <rdf:RDF>
      <cc:Work
         rdf:about="">
        <dc:format>image/svg+xml</dc:format>
        <dc:type
           rdf:resource="http://purl.org/dc/dcmitype/StillImage" />
        <dc:title></dc:title>
      </cc:Work>
    </rdf:RDF>
  </metadata>
  <g
     inkscape:label="Layer 1"
     inkscape:groupmode="layer"
     id="layer1"
     transform="translate(0,-499.36223)">
    <g
       transform="matrix(1.25,0,0,-1.25,-36.0075,1093.2337)"
       id="g4787">
      <g
         id="g4789"
         clip-path="url(#clipPath4791)">
        <g
           id="g4795"
           transform="translate(167.5469,312.9766)">
          <path
             d="M 0,0 C 37.845,0 71.883,-16.3 95.477,-42.262 119.07,-16.3 153.108,0 190.953,0 217.439,0 242.058,-7.989 262.539,-21.681 234.197,44.606 168.4,91.059 91.748,91.059 12.082,91.059 -55.855,40.88 -82.207,-29.592 -59.888,-11.11 -31.242,0 0,0"
             style="fill:#ffffff;fill-opacity:1;fill-rule:nonzero;stroke:none"
             id="path4797"
             inkscape:connector-curvature="0" />
        </g>
        <g
           id="g4799"
           transform="translate(263.0234,97.2852)">
          <path
             d="m 0,0 c -22.901,-25.2 -55.644,-41.295 -92.157,-42.217 26.291,-14.267 56.413,-22.371 88.428,-22.371 32.275,0 62.623,8.24 89.064,22.724 C 51.578,-39.238 21.466,-23.62 0,0"
             style="fill:#ffffff;fill-opacity:1;fill-rule:nonzero;stroke:none"
             id="path4801"
             inkscape:connector-curvature="0" />
        </g>
        <g
           id="g4803"
           transform="translate(266,440.9761)">
          <path
             d="M 0,0 C 108.98,0 187.826,-56.914 218.437,-114.069 193.619,-46.963 112.725,33.024 -4,33.024 c -128.682,0 -223.43,-103 -233,-200.5 -0.079,-0.8 -0.128,-1.598 -0.194,-2.397 C -210.294,-83.043 -114.181,0 0,0"
             style="fill:#ffffff;fill-opacity:1;fill-rule:nonzero;stroke:none"
             id="path4805"
             inkscape:connector-curvature="0" />
        </g>
        <g
           id="g4807"
           transform="translate(79.2949,185.8906)">
          <path
             d="m 0,0 16.666,0 0,-2.188 c 0,-6.927 0.668,-12.031 2.008,-15.312 1.338,-3.281 3.547,-5.6 6.626,-6.953 2.41,-1.043 6.125,-1.785 11.144,-2.227 5.02,-0.443 15.361,-0.664 31.023,-0.664 8.5,0 15.093,0.43 19.779,1.289 4.684,0.86 8.165,2.252 10.441,4.18 1.271,1.041 2.209,2.812 2.811,5.312 0.603,2.5 0.904,5.885 0.904,10.157 0,8.644 -1.122,14.074 -3.363,16.289 -2.244,2.213 -6.677,3.527 -13.303,3.945 l -46.083,2.813 c -13.789,0.832 -23.326,3.515 -28.613,8.047 -5.288,4.531 -7.932,12.16 -7.932,22.89 0,6.77 0.87,12.213 2.611,16.328 1.739,4.114 4.551,7.526 8.433,10.235 3.012,2.082 7.229,3.554 12.65,4.414 5.422,0.859 14.992,1.289 28.714,1.289 l 5.321,0 c 15.327,0 26.119,-0.574 32.378,-1.719 6.258,-1.146 11.496,-3.125 15.713,-5.937 2.877,-1.875 5.002,-4.545 6.375,-8.008 1.371,-3.465 2.058,-7.774 2.058,-12.93 0,-1.511 -0.017,-2.67 -0.05,-3.477 -0.035,-0.808 -0.085,-1.523 -0.151,-2.148 l -16.666,0 0,2.891 c 0,4.27 -0.318,7.539 -0.953,9.804 -0.638,2.266 -1.657,3.946 -3.063,5.039 -2.075,1.614 -5.772,2.747 -11.094,3.399 -5.321,0.65 -15.411,0.976 -30.27,0.976 -15.395,0 -25.066,-1.355 -29.014,-4.062 -3.951,-2.709 -5.924,-8.125 -5.924,-16.25 0,-6.668 1.288,-11.264 3.866,-13.789 2.575,-2.528 7.545,-4.024 14.909,-4.492 l 46.986,-3.047 c 12.314,-0.834 20.948,-3.477 25.902,-7.93 4.953,-4.453 7.43,-11.889 7.43,-22.305 0,-7.605 -0.638,-13.32 -1.908,-17.148 -1.272,-3.828 -3.381,-7.02 -6.325,-9.57 -3.615,-3.178 -8.484,-5.405 -14.608,-6.68 -6.124,-1.275 -17.285,-1.914 -33.483,-1.914 l -7.429,0 c -13.789,0 -23.543,0.547 -29.266,1.64 -5.723,1.094 -10.491,2.995 -14.307,5.704 -3.749,2.5 -6.509,5.884 -8.282,10.156 C 0.887,-17.684 0,-12.266 0,-5.703 L 0,0 Z"
             style="fill:#ffffff;fill-opacity:1;fill-rule:nonzero;stroke:none"
             id="path4809"
             inkscape:connector-curvature="0" />
        </g>
        <g
           id="g4811"
           transform="translate(216.6392,230.2656)">
          <path
             d="M 0,0 15.662,0 47.086,-70.781 78.31,0 93.771,0 53.914,-89.453 c -4.352,-9.688 -8.786,-16.25 -13.303,-19.688 -4.518,-3.437 -10.592,-5.156 -18.222,-5.156 -1.139,0 -2.394,0.039 -3.765,0.117 -1.373,0.078 -2.862,0.223 -4.468,0.43 l 0.1,10.703 c 0.468,-0.051 1.055,-0.09 1.757,-0.117 0.703,-0.025 1.69,-0.039 2.962,-0.039 4.819,0 8.549,0.848 11.194,2.539 2.644,1.693 5.136,4.988 7.48,9.883 l 3.915,8.515 -4.718,0 L 0,0 Z"
             style="fill:#ffffff;fill-opacity:1;fill-rule:nonzero;stroke:none"
             id="path4813"
             inkscape:connector-curvature="0" />
        </g>
        <g
           id="g4815"
           transform="translate(344.2441,195.8125)">
          <path
             d="m 0,0 0,-13.438 c 0,-8.542 2.56,-14.753 7.68,-18.632 5.121,-3.881 13.336,-5.821 24.648,-5.821 10.24,0 17.05,1.432 20.431,4.297 3.379,2.864 5.07,9.479 5.07,19.844 l 0,14.063 c 0,10.416 -1.691,17.056 -5.07,19.921 -3.381,2.864 -10.191,4.297 -20.431,4.297 C 21.016,24.531 12.801,22.59 7.68,18.711 2.56,14.83 0,8.594 0,0 m -15.562,-47.813 0,116.329 15.562,0 0,-45.782 c 3.012,4.532 7.078,7.799 12.198,9.805 5.12,2.004 12.031,3.008 20.732,3.008 15.06,0 25.685,-2.422 31.877,-7.266 6.19,-4.843 9.286,-13.256 9.286,-25.234 l 0,-19.531 c 0,-11.928 -3.096,-20.313 -9.286,-25.157 -6.192,-4.843 -16.817,-7.265 -31.877,-7.265 -9.103,0 -16.331,1.105 -21.685,3.32 -5.356,2.213 -9.305,5.69 -11.848,10.43 l 0,-12.657 -14.959,0 z"
             style="fill:#ffffff;fill-opacity:1;fill-rule:nonzero;stroke:none"
             id="path4817"
             inkscape:connector-curvature="0" />
        </g>
        <g
           id="g4819"
           transform="translate(515.623,168.9375)">
          <path
             d="m 0,0 0,8.672 c 0,3.906 -2.561,6.769 -7.681,8.594 -5.12,1.822 -13.269,2.734 -24.446,2.734 -10.241,0 -17.085,-1.004 -20.531,-3.008 -3.448,-2.006 -5.171,-5.847 -5.171,-11.523 0,-6.459 1.823,-10.77 5.472,-12.93 3.647,-2.162 10.959,-3.242 21.936,-3.242 9.84,0 17.369,0.924 22.59,2.773 C -2.61,-6.082 0,-3.438 0,0 m 0.803,-12.266 c -2.409,-3.437 -6.241,-5.925 -11.495,-7.461 -5.255,-1.535 -12.535,-2.304 -21.836,-2.304 -16.534,0 -27.61,1.836 -33.233,5.508 -5.622,3.671 -8.432,10.507 -8.432,20.507 0,5.782 0.652,10.313 1.957,13.594 1.305,3.281 3.464,5.91 6.475,7.891 2.543,1.666 6.276,2.851 11.195,3.554 4.92,0.704 11.998,1.055 21.234,1.055 9.57,0 16.883,-0.613 21.936,-1.836 C -6.342,27.018 -2.545,24.973 0,22.109 l 0,14.219 c 0,6.719 -1.674,11.067 -5.02,13.047 -3.347,1.979 -11.747,2.969 -25.2,2.969 -9.773,0 -16.264,-0.795 -19.476,-2.383 -3.213,-1.59 -4.887,-4.57 -5.021,-8.945 l -15.561,0 0,1.875 c 0,7.031 2.927,12.043 8.785,15.039 5.855,2.994 15.945,4.492 30.269,4.492 11.177,0 19.678,-0.365 25.501,-1.094 5.824,-0.73 10.141,-1.902 12.952,-3.515 3.078,-1.875 5.253,-4.194 6.526,-6.954 1.27,-2.761 1.907,-7.5 1.907,-14.218 l 0,-57.579 -14.257,0 -0.602,8.672 z"
             style="fill:#ffffff;fill-opacity:1;fill-rule:nonzero;stroke:none"
             id="path4821"
             inkscape:connector-curvature="0" />
        </g>
        <g
           id="g4823"
           transform="translate(562.5078,148)">
          <path
             d="m 0,0 0,82.266 15.16,0 0,-11.25 c 2.209,4.269 5.655,7.395 10.341,9.375 4.685,1.978 10.909,2.968 18.674,2.968 11.512,0 19.594,-2.162 24.246,-6.484 4.651,-4.324 6.977,-11.98 6.977,-22.969 l 0,-0.625 -15.761,0 0,2.422 c 0,6.563 -1.34,10.977 -4.017,13.242 -2.678,2.266 -7.73,3.399 -15.16,3.399 -8.701,0 -14.993,-1.914 -18.874,-5.742 C 17.703,62.773 15.763,56.51 15.763,47.813 L 15.763,0 0,0 Z"
             style="fill:#ffffff;fill-opacity:1;fill-rule:nonzero;stroke:none"
             id="path4825"
             inkscape:connector-curvature="0" />
        </g>
        <path
           d="m 658.891,230.266 15.562,0 0,-82.266 -15.562,0 0,82.266 z m 0,34.062 15.562,0 0,-13.75 -15.562,0 0,13.75 z"
           style="fill:#ffffff;fill-opacity:1;fill-rule:nonzero;stroke:none"
           id="path4827"
           inkscape:connector-curvature="0" />
        <g
           id="g4829"
           transform="translate(696.4385,219.875)">
          <path
             d="m 0,0 0,10.391 12.951,0 0,18.515 15.662,0 0,-18.515 51.805,0 0,-10.391 -51.805,0 0,-45.313 c 0,-6.458 1.356,-10.847 4.067,-13.164 2.71,-2.318 7.881,-3.476 15.51,-3.476 7.564,0 12.666,1.119 15.311,3.359 2.644,2.239 3.966,6.666 3.966,13.281 l 0,2.422 15.863,0 0,-0.703 c 0,-11.562 -2.46,-19.349 -7.379,-23.359 -4.92,-4.012 -15.144,-6.016 -30.672,-6.016 -12.115,0 -20.531,2.121 -25.25,6.367 -4.718,4.245 -7.078,11.914 -7.078,23.008 L 12.951,0 0,0 Z"
             style="fill:#ffffff;fill-opacity:1;fill-rule:nonzero;stroke:none"
             id="path4831"
             inkscape:connector-curvature="0" />
        </g>
        <g
           id="g4833"
           transform="translate(820.3291,197.1406)">
          <path
             d="m 0,0 59.837,0 0,3.203 c 0,7.707 -1.774,12.942 -5.321,15.703 -3.549,2.76 -10.577,4.141 -21.083,4.141 l -7.329,0 C 15.662,23.047 8.7,21.666 5.221,18.906 1.739,16.145 0,10.91 0,3.203 L 0,0 Z m 26.304,-50.234 c -15.797,0 -26.841,2.394 -33.131,7.187 -6.292,4.791 -9.438,13.203 -9.438,25.234 l 0,19.532 c 0,12.082 3.128,20.519 9.388,25.312 6.257,4.791 17.251,7.188 32.981,7.188 l 7.329,0 c 15.795,0 26.838,-2.397 33.13,-7.188 6.291,-4.793 9.438,-13.23 9.438,-25.312 l 0,-12.422 L 0,-10.781 c -0.067,-0.834 -0.118,-1.758 -0.15,-2.774 -0.036,-1.015 -0.051,-2.435 -0.051,-4.258 0,-8.49 1.74,-14.179 5.221,-17.07 3.479,-2.89 10.507,-4.336 21.084,-4.336 l 7.329,0 c 9.436,0 15.996,1.055 19.677,3.164 3.68,2.11 5.824,5.793 6.425,11.055 l 16.265,0 c -0.803,-8.906 -4.485,-15.34 -11.044,-19.297 -6.56,-3.959 -16.934,-5.937 -31.123,-5.937 l -7.329,0 z"
             style="fill:#ffffff;fill-opacity:1;fill-rule:nonzero;stroke:none"
             id="path4835"
             inkscape:connector-curvature="0" />
        </g>
      </g>
    </g>
  </g>
</svg>
